<svg width="201" height="49" viewBox="0 0 201 49" fill="none" xmlns="http://www.w3.org/2000/svg">
<g clip-path="url(#clip0_2022_18)">
<path d="M12.0618 7.35607V7.38312C13.4411 7.51834 14.6851 8.14036 15.6046 9.05987C16.6593 10.1146 17.3084 11.548 17.3084 13.1436C17.3084 14.7392 16.6593 16.1996 15.6046 17.2543C14.5499 18.282 13.1165 18.9311 11.5209 18.9311H5.7875C4.19188 18.9311 2.73148 18.282 1.67675 17.2543C0.649065 16.1996 0 14.7392 0 13.1436H3.13715C3.13715 13.8738 3.43464 14.5228 3.92144 15.0096C4.40824 15.4964 5.0573 15.7939 5.7875 15.7939H11.5209C12.2241 15.7939 12.9002 15.4964 13.3599 15.0096C13.8467 14.5228 14.1442 13.8738 14.1442 13.1436C14.1442 12.4404 13.8467 11.7643 13.3599 11.3046C12.9002 10.8178 12.2241 10.5203 11.5209 10.5203H5.24661C3.78621 10.5203 2.48808 9.92529 1.54153 8.97873C0.567932 8.03218 0 6.70701 0 5.27366C0 3.81326 0.567932 2.51513 1.54153 1.56858C2.48808 0.594977 3.78621 0 5.24661 0H12.0618C13.4951 0 14.8203 0.594977 15.7669 1.56858C16.7134 2.51513 17.3084 3.81326 17.3084 5.27366H14.1442C14.1442 4.70572 13.9008 4.16484 13.5222 3.78621C13.1436 3.40759 12.6297 3.16419 12.0618 3.16419H5.24661C4.67868 3.16419 4.13779 3.40759 3.75917 3.78621C3.38055 4.16484 3.13715 4.70572 3.13715 5.27366C3.13715 5.84159 3.38055 6.35543 3.75917 6.7611C4.13779 7.13972 4.67868 7.35607 5.24661 7.35607H12.0618Z" fill="#F52D3A"/>
<path d="M33.2661 0H36.6737V18.9311H33.5095V5.7875L29.561 12.5216H26.8295L22.854 5.7875V18.9311H19.7168V0H23.1244L28.1817 8.62716L33.2661 0Z" fill="#F52D3A"/>
<path d="M42.3335 18.9311H39.1964V12.0348L41.414 0H51.8261L54.0438 12.0348L54.0708 12.2782V18.9311H50.9066V13.8738H42.3335V18.9311ZM49.2028 3.16419H44.0373L42.6581 10.7096H50.5821L49.2028 3.16419Z" fill="#F52D3A"/>
<path d="M56.5859 0H66.8358C68.5666 0 70.1622 0.730199 71.3251 1.89311C72.461 3.02897 73.1912 4.62459 73.1912 6.38247C73.1912 8.11332 72.461 9.70893 71.3251 10.8718C70.6761 11.5209 69.8918 12.0077 69.0264 12.3322L73.1912 18.9581H69.4861L65.5917 12.7379H59.7231V18.9581H56.5859V0ZM66.8358 3.16419H59.7231V9.57371H66.8358C67.7012 9.57371 68.5125 9.22213 69.0804 8.62716C69.6754 8.05923 70.027 7.2479 70.027 6.38247C70.027 5.49001 69.6484 4.70572 69.0804 4.11075C68.5125 3.54282 67.7012 3.16419 66.8358 3.16419Z" fill="#F52D3A"/>
<path d="M83.0155 18.9311H79.8513V3.16419H74.6588V0H88.208V3.16419H83.0155V18.9311Z" fill="#F52D3A"/>
<path d="M110.784 7.35607V7.38312C112.164 7.51834 113.408 8.14036 114.327 9.05987C115.382 10.1146 116.031 11.548 116.031 13.1436C116.031 14.7392 115.382 16.1996 114.327 17.2543C113.272 18.282 111.839 18.9311 110.243 18.9311H104.51C102.914 18.9311 101.454 18.282 100.399 17.2543C99.3716 16.1996 98.7226 14.7392 98.7226 13.1436H101.86C101.86 13.8738 102.157 14.5228 102.644 15.0096C103.131 15.4964 103.78 15.7939 104.51 15.7939H110.243C110.947 15.7939 111.623 15.4964 112.082 15.0096C112.569 14.5228 112.867 13.8738 112.867 13.1436C112.867 12.4404 112.569 11.7643 112.082 11.3046C111.623 10.8178 110.947 10.5203 110.243 10.5203H103.969C102.509 10.5203 101.211 9.92529 100.264 8.97873C99.2905 8.03218 98.7226 6.70701 98.7226 5.27366C98.7226 3.81326 99.2905 2.51513 100.264 1.56858C101.211 0.594977 102.509 0 103.969 0H110.784C112.218 0 113.543 0.594977 114.489 1.56858C115.436 2.51513 116.031 3.81326 116.031 5.27366H112.867C112.867 4.70572 112.623 4.16484 112.245 3.78621C111.866 3.40759 111.352 3.16419 110.784 3.16419H103.969C103.401 3.16419 102.86 3.40759 102.482 3.78621C102.103 4.16484 101.86 4.70572 101.86 5.27366C101.86 5.84159 102.103 6.35543 102.482 6.7611C102.86 7.13972 103.401 7.35607 103.969 7.35607H110.784Z" fill="white"/>
<path d="M123.701 18.9311V11.8454L116.156 0.027044L116.183 0H119.861L125.27 8.49194L130.706 0H134.357L134.411 0.027044L126.865 11.8454V18.9311H123.701Z" fill="white"/>
<path d="M146.597 7.35607V7.38312C147.976 7.51834 149.22 8.14036 150.14 9.05987C151.195 10.1146 151.844 11.548 151.844 13.1436C151.844 14.7392 151.195 16.1996 150.14 17.2543C149.085 18.282 147.652 18.9311 146.056 18.9311H140.323C138.727 18.9311 137.267 18.282 136.212 17.2543C135.184 16.1996 134.535 14.7392 134.535 13.1436H137.672C137.672 13.8738 137.97 14.5228 138.457 15.0096C138.943 15.4964 139.593 15.7939 140.323 15.7939H146.056C146.759 15.7939 147.435 15.4964 147.895 15.0096C148.382 14.5228 148.679 13.8738 148.679 13.1436C148.679 12.4404 148.382 11.7643 147.895 11.3046C147.435 10.8178 146.759 10.5203 146.056 10.5203H139.782C138.321 10.5203 137.023 9.92529 136.077 8.97873C135.103 8.03218 134.535 6.70701 134.535 5.27366C134.535 3.81326 135.103 2.51513 136.077 1.56858C137.023 0.594977 138.321 0 139.782 0H146.597C148.03 0 149.356 0.594977 150.302 1.56858C151.249 2.51513 151.844 3.81326 151.844 5.27366H148.679C148.679 4.70572 148.436 4.16484 148.057 3.78621C147.679 3.40759 147.165 3.16419 146.597 3.16419H139.782C139.214 3.16419 138.673 3.40759 138.294 3.78621C137.916 4.16484 137.672 4.70572 137.672 5.27366C137.672 5.84159 137.916 6.35543 138.294 6.7611C138.673 7.13972 139.214 7.35607 139.782 7.35607H146.597Z" fill="white"/>
<path d="M161.825 18.9311H158.66V3.16419H153.468V0H167.017V3.16419H161.825V18.9311Z" fill="white"/>
<path d="M181.83 15.7939V18.9311H169.227V0H181.83V3.16419L180.613 5.94977H177.178L178.395 3.16419H172.364V9.19509H178.341V12.3593H172.364V15.7939H181.83Z" fill="white"/>
<path d="M197.592 0H201V18.9311H197.836V5.7875L193.887 12.5216H191.156L187.18 5.7875V18.9311H184.043V0H187.451L192.508 8.62716L197.592 0Z" fill="white"/>
</g>
<path d="M31.4379 44.549V40.165C31.8219 40.165 32.1099 40.0956 32.3019 39.957C32.5046 39.8076 32.6593 39.6103 32.7659 39.365C32.8939 39.045 32.9953 38.629 33.0699 38.117C33.1553 37.5943 33.2193 37.061 33.2619 36.517C33.3366 35.4503 33.3899 34.3836 33.4219 33.317C33.4539 32.2503 33.4753 31.1836 33.4859 30.117H40.7179V40.165H42.0779V44.549H40.6859V41.429H32.8299V44.549H31.4379ZM39.3259 40.165V31.381H34.8459L34.7019 35.781C34.6913 36.037 34.6753 36.341 34.6539 36.693C34.6433 37.045 34.6113 37.4183 34.5579 37.813C34.5153 38.197 34.4513 38.5916 34.3659 38.997C34.2806 39.4023 34.1633 39.7916 34.0139 40.165H39.3259ZM44.5577 37.717C44.5897 38.0903 44.6644 38.437 44.7817 38.757C44.9097 39.0663 45.0804 39.3383 45.2937 39.573C45.507 39.8076 45.7684 39.9943 46.0777 40.133C46.3977 40.261 46.7657 40.325 47.1817 40.325C47.3844 40.325 47.5924 40.309 47.8057 40.277C48.0297 40.2343 48.2377 40.1703 48.4297 40.085C48.6217 39.989 48.7924 39.8663 48.9417 39.717C49.091 39.5676 49.203 39.3863 49.2777 39.173H50.6697C50.5737 39.5783 50.4084 39.9303 50.1737 40.229C49.9497 40.5276 49.6777 40.773 49.3577 40.965C49.0484 41.157 48.7017 41.301 48.3177 41.397C47.9337 41.4823 47.5444 41.525 47.1497 41.525C46.4777 41.525 45.891 41.4183 45.3897 41.205C44.899 40.9916 44.4884 40.6983 44.1577 40.325C43.827 39.941 43.5817 39.4876 43.4217 38.965C43.2617 38.4316 43.1817 37.8503 43.1817 37.221C43.1817 36.5916 43.267 36.0156 43.4377 35.493C43.619 34.9596 43.875 34.501 44.2057 34.117C44.5364 33.733 44.9417 33.4343 45.4217 33.221C45.9017 33.0076 46.4724 32.901 47.1337 32.901C47.8057 32.901 48.387 33.0343 48.8777 33.301C49.3684 33.5676 49.763 33.9196 50.0617 34.357C50.3604 34.7836 50.5684 35.2476 50.6857 35.749C50.8137 36.2503 50.867 36.7143 50.8457 37.141C50.8457 37.237 50.8404 37.333 50.8297 37.429C50.8297 37.525 50.8244 37.621 50.8137 37.717H44.5577ZM49.4697 36.533C49.4484 35.8183 49.2244 35.237 48.7977 34.789C48.371 34.341 47.8004 34.117 47.0857 34.117C46.691 34.117 46.3444 34.181 46.0457 34.309C45.747 34.437 45.4964 34.613 45.2937 34.837C45.091 35.061 44.931 35.3223 44.8137 35.621C44.6964 35.909 44.6217 36.213 44.5897 36.533H49.4697ZM58.8976 32.997V34.197H56.0016V41.429H54.6416V34.197H51.7456V32.997H58.8976ZM61.1671 37.717C61.1991 38.0903 61.2737 38.437 61.3911 38.757C61.5191 39.0663 61.6897 39.3383 61.9031 39.573C62.1164 39.8076 62.3777 39.9943 62.6871 40.133C63.0071 40.261 63.3751 40.325 63.7911 40.325C63.9937 40.325 64.2017 40.309 64.4151 40.277C64.6391 40.2343 64.8471 40.1703 65.0391 40.085C65.2311 39.989 65.4017 39.8663 65.5511 39.717C65.7004 39.5676 65.8124 39.3863 65.8871 39.173H67.2791C67.1831 39.5783 67.0177 39.9303 66.7831 40.229C66.5591 40.5276 66.2871 40.773 65.9671 40.965C65.6577 41.157 65.3111 41.301 64.9271 41.397C64.5431 41.4823 64.1537 41.525 63.7591 41.525C63.0871 41.525 62.5004 41.4183 61.9991 41.205C61.5084 40.9916 61.0977 40.6983 60.7671 40.325C60.4364 39.941 60.1911 39.4876 60.0311 38.965C59.8711 38.4316 59.7911 37.8503 59.7911 37.221C59.7911 36.5916 59.8764 36.0156 60.0471 35.493C60.2284 34.9596 60.4844 34.501 60.8151 34.117C61.1457 33.733 61.5511 33.4343 62.0311 33.221C62.5111 33.0076 63.0817 32.901 63.7431 32.901C64.4151 32.901 64.9964 33.0343 65.4871 33.301C65.9777 33.5676 66.3724 33.9196 66.6711 34.357C66.9697 34.7836 67.1777 35.2476 67.2951 35.749C67.4231 36.2503 67.4764 36.7143 67.4551 37.141C67.4551 37.237 67.4497 37.333 67.4391 37.429C67.4391 37.525 67.4337 37.621 67.4231 37.717H61.1671ZM66.0791 36.533C66.0577 35.8183 65.8337 35.237 65.4071 34.789C64.9804 34.341 64.4097 34.117 63.6951 34.117C63.3004 34.117 62.9537 34.181 62.6551 34.309C62.3564 34.437 62.1057 34.613 61.9031 34.837C61.7004 35.061 61.5404 35.3223 61.4231 35.621C61.3057 35.909 61.2311 36.213 61.1991 36.533H66.0791ZM73.1069 30.837C73.5549 30.837 73.9123 30.7516 74.1789 30.581C74.4563 30.4103 74.5949 30.1116 74.5949 29.685H75.8429C75.8216 30.453 75.5656 31.013 75.0749 31.365C74.5949 31.717 73.9336 31.893 73.0909 31.893C72.2483 31.893 71.5869 31.717 71.1069 31.365C70.6376 31.013 70.3923 30.453 70.3709 29.685H71.6189C71.6296 30.1116 71.7683 30.4103 72.0349 30.581C72.3016 30.7516 72.6589 30.837 73.1069 30.837ZM70.6109 41.429H69.2829V32.997H70.6429V39.461C70.7176 39.3116 70.8189 39.1516 70.9469 38.981C71.0749 38.7996 71.1763 38.661 71.2509 38.565L75.3309 32.997H76.6749V41.429H75.3149V34.965C75.2296 35.125 75.1336 35.2796 75.0269 35.429C74.9309 35.5676 74.8403 35.6903 74.7549 35.797L70.6109 41.429ZM79.5982 37.477C79.6515 36.709 79.6889 35.9623 79.7102 35.237C79.7422 34.5116 79.7635 33.765 79.7742 32.997H85.6302V41.429H84.2702V34.197H81.1022L80.9582 37.509C80.9369 37.9356 80.8889 38.4156 80.8142 38.949C80.7395 39.4823 80.5849 39.9676 80.3502 40.405C80.1689 40.7143 79.9235 40.965 79.6142 41.157C79.3049 41.349 78.9475 41.445 78.5422 41.445H78.0462V40.245C78.4729 40.245 78.8142 40.0636 79.0702 39.701C79.2195 39.4876 79.3369 39.1783 79.4222 38.773C79.5075 38.3676 79.5662 37.9356 79.5982 37.477ZM89.0953 41.429H87.7673V32.997H89.1273V39.461C89.202 39.3116 89.3033 39.1516 89.4313 38.981C89.5593 38.7996 89.6606 38.661 89.7353 38.565L93.8153 32.997H95.1593V41.429H93.7993V34.965C93.714 35.125 93.618 35.2796 93.5113 35.429C93.4153 35.5676 93.3246 35.6903 93.2393 35.797L89.0953 41.429ZM97.2986 41.429V32.997H98.6586V36.693H102.883V32.997H104.243V41.429H102.883V37.893H98.6586V41.429H97.2986ZM106.392 41.429V32.997H112.216V34.197H107.752V41.429H106.392ZM121.57 41.525C120.898 41.525 120.317 41.4183 119.826 41.205C119.336 40.9916 118.93 40.693 118.61 40.309C118.29 39.925 118.05 39.4716 117.89 38.949C117.73 38.4263 117.65 37.8556 117.65 37.237C117.65 36.6396 117.736 36.0796 117.906 35.557C118.077 35.0236 118.328 34.565 118.658 34.181C118.989 33.7863 119.405 33.477 119.906 33.253C120.408 33.0183 121.016 32.901 121.73 32.901C122.157 32.901 122.536 32.949 122.866 33.045C123.197 33.1303 123.506 33.2743 123.794 33.477C124.093 33.669 124.349 33.925 124.562 34.245C124.776 34.565 124.93 34.9543 125.026 35.413H123.634C123.474 34.9436 123.218 34.6076 122.866 34.405C122.525 34.2023 122.12 34.1063 121.65 34.117C121.192 34.117 120.786 34.2076 120.434 34.389C120.093 34.5596 119.816 34.789 119.602 35.077C119.4 35.365 119.25 35.701 119.154 36.085C119.058 36.4583 119.01 36.8423 119.01 37.237C119.01 37.653 119.058 38.0476 119.154 38.421C119.261 38.7943 119.416 39.125 119.618 39.413C119.832 39.6903 120.104 39.9143 120.434 40.085C120.765 40.245 121.16 40.325 121.618 40.325C121.842 40.325 122.061 40.3036 122.274 40.261C122.498 40.2183 122.701 40.149 122.882 40.053C123.074 39.9463 123.24 39.8076 123.378 39.637C123.517 39.4663 123.618 39.2583 123.682 39.013H125.09C125.005 39.4503 124.85 39.829 124.626 40.149C124.413 40.4583 124.146 40.7196 123.826 40.933C123.506 41.1356 123.154 41.285 122.77 41.381C122.386 41.477 121.986 41.525 121.57 41.525ZM133.038 32.997V34.197H130.142V41.429H128.782V34.197H125.886V32.997H133.038ZM140.628 32.997H142.164L139.78 39.637C139.652 39.9783 139.514 40.3676 139.364 40.805C139.226 41.2316 139.066 41.6583 138.884 42.085C138.714 42.5223 138.516 42.933 138.292 43.317C138.079 43.701 137.839 44.0103 137.572 44.245C137.178 44.597 136.799 44.8156 136.436 44.901C136.074 44.997 135.663 45.045 135.204 45.045H134.916V43.749C135.3 43.749 135.626 43.7063 135.892 43.621C136.159 43.5463 136.388 43.4236 136.58 43.253C136.783 43.0823 136.954 42.869 137.092 42.613C137.242 42.357 137.391 42.053 137.54 41.701L133.764 32.997H135.364L138.292 40.101L140.628 32.997ZM144.384 34.853C144.394 34.5436 144.4 34.2343 144.4 33.925C144.4 33.6156 144.4 33.3063 144.4 32.997H150.384V40.245H151.488V44.021H150.176V41.429H144.016V44.021H142.704V40.245C143.13 40.245 143.466 40.053 143.712 39.669C143.861 39.4556 143.978 39.1516 144.064 38.757C144.149 38.3516 144.213 37.925 144.256 37.477C144.309 36.9863 144.341 36.501 144.352 36.021C144.373 35.5303 144.384 35.141 144.384 34.853ZM149.024 34.197H145.696C145.685 34.645 145.674 35.1463 145.664 35.701C145.653 36.2556 145.632 36.773 145.6 37.253C145.589 37.4663 145.573 37.701 145.552 37.957C145.53 38.2023 145.493 38.4583 145.44 38.725C145.397 38.981 145.328 39.2423 145.232 39.509C145.146 39.7756 145.024 40.021 144.864 40.245H149.024V34.197ZM154.236 41.429H152.908V32.997H154.268V39.461C154.343 39.3116 154.444 39.1516 154.572 38.981C154.7 38.7996 154.801 38.661 154.876 38.565L158.956 32.997H160.3V41.429H158.94V34.965C158.855 35.125 158.759 35.2796 158.652 35.429C158.556 35.5676 158.465 35.6903 158.38 35.797L154.236 41.429ZM168.839 41.429H167.479V38.309H165.543L163.495 41.429H161.911L164.103 38.101C163.495 37.9303 163.021 37.653 162.679 37.269C162.338 36.8743 162.157 36.3516 162.135 35.701C162.125 35.1356 162.21 34.6823 162.391 34.341C162.583 33.989 162.834 33.7063 163.143 33.493C163.442 33.2796 163.789 33.1463 164.183 33.093C164.578 33.029 164.999 32.997 165.447 32.997H168.839V41.429ZM167.479 34.197L165.671 34.181C165.405 34.181 165.133 34.1916 164.855 34.213C164.589 34.2343 164.349 34.3036 164.135 34.421C163.954 34.5276 163.805 34.6823 163.687 34.885C163.581 35.077 163.522 35.3276 163.511 35.637C163.522 35.925 163.591 36.1703 163.719 36.373C163.847 36.565 164.029 36.7196 164.263 36.837C164.573 36.9863 164.914 37.0716 165.287 37.093C165.671 37.1143 166.066 37.125 166.471 37.125H167.479V34.197Z" fill="white"/>
<defs>
<clipPath id="clip0_2022_18">
<rect width="201" height="19" fill="white"/>
</clipPath>
</defs>
</svg>
