<svg width="639" height="60" viewBox="0 0 639 60" fill="none" xmlns="http://www.w3.org/2000/svg">
<path d="M38.174 23.281V23.3666C42.5392 23.7946 46.4765 25.7632 49.3866 28.6733C52.7247 32.0114 54.7789 36.5478 54.7789 41.5977C54.7789 46.6476 52.7247 51.2696 49.3866 54.6077C46.0485 57.8602 41.5121 59.9144 36.4622 59.9144H18.3167C13.2668 59.9144 8.64479 57.8602 5.3067 54.6077C2.05421 51.2696 0 46.6476 0 41.5977H9.92867C9.92867 43.9087 10.8702 45.9629 12.4108 47.5036C13.9515 49.0442 16.0057 49.9857 18.3167 49.9857H36.4622C38.6876 49.9857 40.8274 49.0442 42.2825 47.5036C43.8231 45.9629 44.7646 43.9087 44.7646 41.5977C44.7646 39.3723 43.8231 37.2325 42.2825 35.7775C40.8274 34.2368 38.6876 33.2953 36.4622 33.2953H16.6048C11.9829 33.2953 7.87446 31.4123 4.87874 28.4165C1.79743 25.4208 0 21.2268 0 16.6904C0 12.0685 1.79743 7.96006 4.87874 4.96434C7.87446 1.88303 11.9829 0 16.6048 0H38.174C42.7104 0 46.9044 1.88303 49.9001 4.96434C52.8959 7.96006 54.7789 12.0685 54.7789 16.6904H44.7646C44.7646 14.893 43.9943 13.1812 42.796 11.9829C41.5977 10.7846 39.9715 10.0143 38.174 10.0143H16.6048C14.8074 10.0143 13.0956 10.7846 11.8973 11.9829C10.699 13.1812 9.92867 14.893 9.92867 16.6904C9.92867 18.4879 10.699 20.1141 11.8973 21.398C13.0956 22.5963 14.8074 23.281 16.6048 23.281H38.174Z" fill="#F52D3A"/>
<path d="M105.283 0H116.067V59.9144H106.053V18.3167L93.5567 39.6291H84.9119L72.3299 18.3167V59.9144H62.4013V0H73.1858L89.1916 27.3039L105.283 0Z" fill="#F52D3A"/>
<path d="M133.98 59.9144H124.052V38.0884L131.07 0H164.023L171.042 38.0884L171.127 38.8588V59.9144H161.113V43.9087H133.98V59.9144ZM155.721 10.0143H139.373L135.007 33.8944H160.086L155.721 10.0143Z" fill="#F52D3A"/>
<path d="M179.087 0H211.527C217.004 0 222.054 2.31098 225.735 5.99144C229.33 9.58631 231.641 14.6362 231.641 20.1997C231.641 25.6776 229.33 30.7275 225.735 34.408C223.681 36.4622 221.198 38.0028 218.46 39.03L231.641 60H219.915L207.589 40.3138H189.016V60H179.087V0ZM211.527 10.0143H189.016V30.2996H211.527C214.266 30.2996 216.833 29.1869 218.631 27.3039C220.514 25.5064 221.626 22.9387 221.626 20.1997C221.626 17.3752 220.428 14.893 218.631 13.01C216.833 11.2126 214.266 10.0143 211.527 10.0143Z" fill="#F52D3A"/>
<path d="M262.733 59.9144H252.719V10.0143H236.285V0H279.167V10.0143H262.733V59.9144Z" fill="#F52D3A"/>
<path d="M350.618 23.281V23.3666C354.983 23.7946 358.921 25.7632 361.831 28.6733C365.169 32.0114 367.223 36.5478 367.223 41.5977C367.223 46.6476 365.169 51.2696 361.831 54.6077C358.493 57.8602 353.956 59.9144 348.906 59.9144H330.761C325.711 59.9144 321.089 57.8602 317.751 54.6077C314.498 51.2696 312.444 46.6476 312.444 41.5977H322.373C322.373 43.9087 323.314 45.9629 324.855 47.5036C326.396 49.0442 328.45 49.9857 330.761 49.9857H348.906C351.132 49.9857 353.272 49.0442 354.727 47.5036C356.267 45.9629 357.209 43.9087 357.209 41.5977C357.209 39.3723 356.267 37.2325 354.727 35.7775C353.272 34.2368 351.132 33.2953 348.906 33.2953H329.049C324.427 33.2953 320.319 31.4123 317.323 28.4165C314.242 25.4208 312.444 21.2268 312.444 16.6904C312.444 12.0685 314.242 7.96006 317.323 4.96434C320.319 1.88303 324.427 0 329.049 0H350.618C355.155 0 359.349 1.88303 362.344 4.96434C365.34 7.96006 367.223 12.0685 367.223 16.6904H357.209C357.209 14.893 356.439 13.1812 355.24 11.9829C354.042 10.7846 352.416 10.0143 350.618 10.0143H329.049C327.252 10.0143 325.54 10.7846 324.342 11.9829C323.143 13.1812 322.373 14.893 322.373 16.6904C322.373 18.4879 323.143 20.1141 324.342 21.398C325.54 22.5963 327.252 23.281 329.049 23.281H350.618Z" fill="white"/>
<path d="M391.499 59.9144V37.4893L367.618 0.0855909L367.704 0H379.344L396.463 26.8759L413.667 0H425.222L425.393 0.0855909L401.513 37.4893V59.9144H391.499Z" fill="white"/>
<path d="M463.961 23.281V23.3666C468.326 23.7946 472.263 25.7632 475.173 28.6733C478.511 32.0114 480.566 36.5478 480.566 41.5977C480.566 46.6476 478.511 51.2696 475.173 54.6077C471.835 57.8602 467.299 59.9144 462.249 59.9144H444.103C439.054 59.9144 434.432 57.8602 431.093 54.6077C427.841 51.2696 425.787 46.6476 425.787 41.5977H435.715C435.715 43.9087 436.657 45.9629 438.198 47.5036C439.738 49.0442 441.793 49.9857 444.103 49.9857H462.249C464.474 49.9857 466.614 49.0442 468.069 47.5036C469.61 45.9629 470.551 43.9087 470.551 41.5977C470.551 39.3723 469.61 37.2325 468.069 35.7775C466.614 34.2368 464.474 33.2953 462.249 33.2953H442.392C437.77 33.2953 433.661 31.4123 430.666 28.4165C427.584 25.4208 425.787 21.2268 425.787 16.6904C425.787 12.0685 427.584 7.96006 430.666 4.96434C433.661 1.88303 437.77 0 442.392 0H463.961C468.497 0 472.691 1.88303 475.687 4.96434C478.683 7.96006 480.566 12.0685 480.566 16.6904H470.551C470.551 14.893 469.781 13.1812 468.583 11.9829C467.384 10.7846 465.758 10.0143 463.961 10.0143H442.392C440.594 10.0143 438.882 10.7846 437.684 11.9829C436.486 13.1812 435.715 14.893 435.715 16.6904C435.715 18.4879 436.486 20.1141 437.684 21.398C438.882 22.5963 440.594 23.281 442.392 23.281H463.961Z" fill="white"/>
<path d="M512.154 59.9144H502.139V10.0143H485.706V0H528.587V10.0143H512.154V59.9144Z" fill="white"/>
<path d="M575.467 49.9857V59.9144H535.581V0H575.467V10.0143L571.615 18.8302H560.745L564.597 10.0143H545.51V29.1013H564.426V39.1155H545.51V49.9857H575.467Z" fill="white"/>
<path d="M625.355 0H636.139V59.9144H626.125V18.3167L613.628 39.6291H604.984L592.402 18.3167V59.9144H582.473V0H593.258L609.263 27.3039L625.355 0Z" fill="white"/>
</svg>
