<svg width="23" height="18" viewBox="0 0 23 18" fill="none" xmlns="http://www.w3.org/2000/svg">
<path d="M6.88924 3.78C6.54784 2.64 5.61706 2.76353 4.98096 3.29647C3.41409 4.71882 1.37284 7.70118 2.68096 11.9965C3.77346 15.6353 8.32315 17.9612 8.32315 17.9612H3.01877C3.01877 17.9612 0.280337 14.9471 0.0359621 11.4C-0.276694 6.91765 1.55252 4.09059 3.67284 2.24824C5.66377 0.515294 7.55768 0 7.55768 0L11.4317 12.4588L15.3022 0C15.3022 0 17.1961 0.515294 19.1871 2.24824C21.3074 4.09059 23.1366 6.91765 22.8275 11.4C22.5832 14.9435 19.8447 17.9612 19.8447 17.9612H14.5403C14.5403 17.9612 19.09 15.6353 20.1825 11.9965C21.4871 7.70118 19.4494 4.71882 17.8825 3.29647C17.2464 2.76706 16.3157 2.64 15.9742 3.78C14.7991 7.41882 11.4317 17.8447 11.4317 17.8447C11.4317 17.8447 8.0644 7.41529 6.88924 3.78Z" fill="#027FFF"/>
</svg>
