<svg width="20" height="20" viewBox="0 0 20 20" fill="none" xmlns="http://www.w3.org/2000/svg">
<path fill-rule="evenodd" clip-rule="evenodd" d="M16.7023 2.85581C14.8651 1.01395 12.4186 0 9.81395 0C4.45116 0 0.0837209 4.36744 0.0837209 9.73488C0.0837209 11.4512 0.530233 13.1256 1.3814 14.6L0 19.6465L5.15814 18.293C6.5814 19.0698 8.1814 19.4791 9.8093 19.4791C15.1721 19.4791 19.5395 15.1116 19.5442 9.74419C19.5442 7.14419 18.5349 4.69767 16.6977 2.85581H16.7023ZM9.8186 17.8326C8.36744 17.8326 6.94419 17.4419 5.70233 16.707L5.4093 16.5302L2.34884 17.3349L3.16744 14.3488L2.97674 14.0419C2.16744 12.7535 1.73953 11.2651 1.73953 9.73488C1.73953 5.27442 5.37209 1.64651 9.83256 1.64651C11.9953 1.64651 14.0233 2.48837 15.5535 4.0186C17.0837 5.54884 17.9209 7.5814 17.9209 9.74419C17.9209 14.2047 14.2884 17.8372 9.82791 17.8372L9.8186 17.8326ZM14.2558 11.7721C14.014 11.6512 12.8186 11.0605 12.5953 10.9814C12.3721 10.9023 12.2093 10.8605 12.0465 11.1023C11.8837 11.3442 11.4186 11.893 11.2744 12.0558C11.1302 12.2186 10.9907 12.2372 10.7488 12.1163C10.507 11.9953 9.72093 11.7395 8.7907 10.907C8.06977 10.2605 7.5814 9.46512 7.43721 9.22326C7.29767 8.9814 7.43721 8.86047 7.54419 8.72558C7.8093 8.4 8.06977 8.05581 8.15349 7.89302C8.23256 7.73023 8.19535 7.5907 8.13488 7.46512C8.07442 7.34419 7.58605 6.14419 7.38605 5.66047C7.1907 5.18605 6.98605 5.25116 6.83721 5.24186C6.69767 5.23256 6.53488 5.23256 6.37209 5.23256C6.2093 5.23256 5.94419 5.29302 5.72558 5.53488C5.50233 5.77674 4.87442 6.36744 4.87442 7.56279C4.87442 8.75814 5.74419 9.91628 5.86977 10.0791C5.99535 10.2419 7.58605 12.6977 10.0233 13.7535C10.6047 14.0047 11.0558 14.1535 11.4093 14.2651C11.9907 14.4512 12.5209 14.4233 12.9395 14.3628C13.4047 14.293 14.3767 13.7721 14.5814 13.2047C14.786 12.6372 14.786 12.1488 14.7209 12.0465C14.6605 11.9442 14.4977 11.8837 14.2558 11.7628V11.7721Z" fill="white"/>
</svg>
