<svg width="398" height="55" viewBox="0 0 398 55" fill="none" xmlns="http://www.w3.org/2000/svg">
<path d="M79.663 45.7608H87.0625V3.4209H76.2821C65.4437 3.4209 59.7637 8.95603 59.7637 17.1242C59.7637 23.6395 62.8742 27.4834 68.4576 31.4425L58.7784 45.7608H66.7961L77.5765 29.732L73.8478 27.2335C69.3077 24.1969 67.1052 21.8137 67.1052 16.7014C67.1052 12.1849 70.293 9.14823 76.3594 9.14823H79.663V45.7608ZM222.532 46.3566C225.913 46.3566 228.29 45.7608 230.067 44.4732V38.5728C228.232 39.8413 226.029 40.6293 222.977 40.6293C217.76 40.6293 215.616 36.6125 215.616 30.2894C215.616 23.6395 218.263 20.2377 223.035 20.2377C225.855 20.2377 228.599 21.1987 230.067 22.1212V15.971C228.541 15.1062 225.855 14.5104 222.243 14.5104C212.93 14.5104 208.081 21.141 208.081 30.4623C208.081 40.7062 212.795 46.3566 222.532 46.3566ZM176.976 43.6852V37.7656C174.716 39.3032 170.91 40.6293 167.355 40.6293C162.023 40.6293 160.014 38.15 159.705 33.0185H177.286V29.1939C177.286 18.5272 172.572 14.5104 165.269 14.5104C156.401 14.5104 152.17 21.2563 152.17 30.52C152.17 41.1867 157.444 46.3566 166.756 46.3566C171.393 46.3566 174.832 45.1458 176.976 43.6852ZM200.257 45.7608H208.506L196.818 29.4822L207.115 15.1062H199.754L189.476 29.4822V15.1062H182.173V45.7608H189.476V30.9428L200.257 45.7608ZM150.393 40.0335H147.147V15.1062H125.895V17.7392C125.895 25.2155 125.412 34.902 122.843 40.0335H120.563V52.7566H127.305V45.7608H143.65V52.7566H150.393V40.0335ZM110.227 15.1062V27.2335H100.49V15.1062H93.1868V45.7608H100.49V32.9608H110.227V45.7608H117.51V15.1062H110.227ZM165.153 20.2377C168.766 20.2377 169.867 23.2167 169.867 27.0605V27.6563H159.705C159.898 22.7939 161.656 20.2377 165.153 20.2377ZM139.863 40.0335H129.566C131.594 35.4017 132.155 27.0605 132.155 21.756V20.8335H139.863V40.0335ZM268.107 45.7608H276.743L261.616 23.5242L275.333 3.4209H267.798L254.622 22.9092V3.4209H247.223V45.7608H254.622V25.8882L268.107 45.7608ZM301.608 24.8503C301.608 17.4317 297.802 14.6257 290.093 14.6257C285.263 14.6257 281.457 16.144 279.255 17.4317V23.4665C281.206 21.9867 285.495 20.4107 289.243 20.4107C292.721 20.4107 294.324 21.6215 294.324 24.9272V26.6185H293.146C281.998 26.6185 277.053 30.2894 277.053 36.4972C277.053 42.705 280.839 46.1837 286.481 46.1837C290.77 46.1837 292.605 44.7807 294.015 43.32H294.324C294.382 44.108 294.633 45.1458 294.865 45.7608H301.975C301.724 43.2623 301.608 40.7638 301.608 38.2653V24.8503ZM294.324 38.4383C293.397 39.7837 291.678 40.8792 289.108 40.8792C286.056 40.8792 284.51 39.1686 284.51 36.5548C284.51 33.0762 287.021 31.8077 293.281 31.8077H294.324V38.4383ZM314.224 15.1062H307.481V54.5825H314.765V42.1668C316.619 44.896 319.305 46.3566 322.435 46.3566C329.525 46.3566 334.432 40.7062 334.432 30.4047C334.432 20.1608 329.66 14.5104 322.802 14.5104C319.363 14.5104 316.542 16.0864 314.591 19.0653L314.224 15.1062ZM320.599 40.6293C316.735 40.6293 314.765 37.535 314.765 30.4623C314.765 23.332 316.851 20.2377 320.966 20.2377C324.946 20.2377 326.897 23.332 326.897 30.4047C326.897 37.535 324.811 40.6293 320.599 40.6293ZM360.089 20.8335V15.1062H335.649V20.8335H344.227V45.7608H351.511V20.8335H360.089ZM364.378 15.1062V45.7608H375.467C382.635 45.7608 387.716 42.1092 387.716 34.902C387.716 28.0792 383.176 24.4852 375.583 24.4852H371.661V15.1062H364.378ZM390.401 15.1062V45.7608H397.704V15.1062H390.401ZM375.042 40.0335H371.661V30.2125H375.216C378.346 30.2125 380.181 31.6155 380.181 35.1518C380.181 38.6882 378.153 40.0335 375.042 40.0335Z" fill="black"/>
<path d="M21.9174 0.124023C9.94994 0.124023 0.249023 9.77377 0.249023 21.6781C0.249023 27.6281 2.67263 33.0155 6.59243 36.9157C10.5133 40.8181 19.7505 46.4652 20.2922 52.3926C20.3735 53.2814 21.0203 54.0092 21.9174 54.0092C22.8144 54.0092 23.4613 53.2814 23.5425 52.3926C24.0842 46.4652 33.3214 40.8181 37.2423 36.9157C41.1621 33.0155 43.5857 27.6281 43.5857 21.6781C43.5857 9.77377 33.8848 0.124023 21.9174 0.124023Z" fill="#FF4433"/>
<path d="M21.9174 29.2236C26.1059 29.2236 29.5013 25.846 29.5013 21.6797C29.5013 17.5133 26.1059 14.1357 21.9174 14.1357C17.729 14.1357 14.3335 17.5133 14.3335 21.6797C14.3335 25.846 17.729 29.2236 21.9174 29.2236Z" fill="white"/>
</svg>
